<svg width="64" height="64" xmlns="http://www.w3.org/2000/svg">

 <g>
  <title>background</title>
  <rect fill="none" id="canvas_background" height="66" width="66" y="-1" x="-1"/>
 </g>
 <g>
  <title>Layer 1</title>
  <circle stroke="null" id="svg_1" r="14.808383" fill="#00ff8a" cy="32.081058" cx="34.231919"/>
  <path id="svg_92" fill="#37474F" d="m36.575299,40.404274l0.549,1.326l0.021,0.093l0.21,0.778l0.798,0c0.661,0 1.317,0.111 1.952,0.332l0.748,0.261l0.425,-0.669l0.054,-0.086l0.952,-1.079l0.541,0.338l-0.552,1.326l-0.053,0.086l-0.42,0.678l0.566,0.561c0.481,0.477 0.874,1.025 1.167,1.633l0.347,0.719l0.777,-0.179l0.095,-0.021l1.435,-0.089l0.144,0.621l-1.331,0.549l-0.099,0.023l-0.769,0.185l0.002,0.79c0.002,0.674 -0.11,1.342 -0.334,1.985l-0.259,0.747l0.668,0.425l0.086,0.054l1.079,0.952l-0.338,0.54l-1.324,-0.55l-0.084,-0.053l-0.679,-0.425l-0.563,0.568c-0.479,0.482 -1.028,0.876 -1.634,1.167l-0.724,0.349l0.184,0.781l0.021,0.093l0.089,1.432l-0.621,0.144l-0.549,-1.326l-0.021,-0.094l-0.193,-0.778l-0.797,0c-0.671,0 -1.333,-0.112 -1.969,-0.334l-0.759,-0.265l-0.422,0.685l-0.051,0.082l-0.947,1.073l-0.541,-0.338l0.551,-1.328l0.055,-0.088l0.416,-0.675l-0.563,-0.559c-0.483,-0.481 -0.877,-1.031 -1.169,-1.636l-0.347,-0.717l-0.777,0.178l-0.095,0.021l-1.435,0.089l-0.144,-0.621l1.329,-0.549l0.097,-0.022l0.774,-0.182l-0.003,-0.796c-0.003,-0.673 0.109,-1.339 0.333,-1.98l0.26,-0.745l-0.664,-0.426l-0.088,-0.057l-1.081,-0.953l0.338,-0.541l1.322,0.55l0.079,0.051l0.678,0.43l0.566,-0.568c0.483,-0.485 1.034,-0.879 1.638,-1.17l0.722,-0.348l-0.183,-0.78l-0.021,-0.094l-0.088,-1.432l0.623,-0.142l0,0zm1.563,10.692c0.188,0 0.377,-0.022 0.563,-0.064c0.65,-0.15 1.203,-0.545 1.557,-1.11c0.354,-0.566 0.466,-1.237 0.315,-1.887c-0.263,-1.143 -1.264,-1.94 -2.435,-1.939c-0.188,0 -0.377,0.021 -0.564,0.064c-1.343,0.312 -2.183,1.657 -1.872,3c0.264,1.139 1.266,1.936 2.436,1.936l0,0zm-0.963,-11.857l-2.271,0.524l0.145,2.361l0.041,0.176c-0.721,0.348 -1.361,0.813 -1.911,1.364l-0.152,-0.097l-2.185,-0.907l-1.236,1.979l1.774,1.564l0.152,0.098c-0.256,0.734 -0.392,1.514 -0.389,2.313l-0.175,0.042l-2.188,0.903l0.525,2.272l2.361,-0.146l0.175,-0.04c0.349,0.721 0.813,1.361 1.364,1.909l-0.096,0.155l-0.906,2.184l1.978,1.236l1.565,-1.772l0.096,-0.155c0.729,0.254 1.504,0.39 2.298,0.39c0.005,0 0.011,0 0.017,0l0.04,0.175l0.905,2.187l2.271,-0.524l-0.145,-2.364l-0.041,-0.175c0.722,-0.348 1.362,-0.812 1.91,-1.364l0.154,0.097l2.185,0.907l1.235,-1.978l-1.773,-1.565l-0.152,-0.097c0.255,-0.735 0.391,-1.516 0.389,-2.314l0.175,-0.042l2.187,-0.902l-0.524,-2.271l-2.362,0.146l-0.175,0.04c-0.348,-0.721 -0.812,-1.362 -1.364,-1.909l0.096,-0.154l0.908,-2.184l-1.979,-1.237l-1.565,1.774l-0.097,0.152c-0.723,-0.251 -1.491,-0.388 -2.28,-0.388c-0.011,0 -0.022,0 -0.033,0l-0.04,-0.176l-0.907,-2.187l0,0zm0.963,10.857c-0.684,0 -1.301,-0.469 -1.461,-1.162c-0.188,-0.809 0.316,-1.613 1.124,-1.801c0.113,-0.026 0.227,-0.038 0.338,-0.038c0.684,0 1.301,0.469 1.46,1.163c0.188,0.809 -0.316,1.612 -1.123,1.799c-0.113,0.026 -0.227,0.039 -0.338,0.039l0,0z"/>
  <path id="svg_93" fill="#37474F" d="m20.606299,25.633274l0.734,1.614l0.031,0.117l0.206,0.772l0.799,-0.031c0.09,-0.003 0.179,-0.005 0.268,-0.005c0.001,0 0.001,0 0.001,0c0.69,0 1.382,0.105 2.054,0.313l0.76,0.235l0.4,-0.688l0.063,-0.109l1.129,-1.371l0.842,0.485l-0.622,1.661l-0.062,0.106l-0.4,0.69l0.585,0.543c0.582,0.541 1.063,1.167 1.429,1.861l0.372,0.704l0.77,-0.204l0.119,-0.032l1.767,-0.172l0.252,0.938l-1.614,0.733l-0.117,0.031l-0.773,0.206l0.031,0.799c0.03,0.783 -0.074,1.565 -0.309,2.325l-0.234,0.763l0.691,0.398l0.107,0.063l1.369,1.126l-0.486,0.843l-1.659,-0.622l-0.106,-0.062l-0.693,-0.403l-0.544,0.589c-0.538,0.582 -1.164,1.063 -1.858,1.429l-0.709,0.374l0.211,0.773l0.031,0.115l0.171,1.764l-0.938,0.251l-0.735,-1.616l-0.032,-0.119l-0.209,-0.768l-0.794,0.031c-0.089,0.003 -0.177,0.005 -0.265,0.005c-0.694,0 -1.387,-0.105 -2.058,-0.313l-0.754,-0.234l-0.402,0.68l-0.067,0.113l-1.129,1.373l-0.842,-0.486l0.62,-1.656l0.063,-0.107l0.405,-0.692l-0.59,-0.546c-0.579,-0.536 -1.061,-1.162 -1.43,-1.859l-0.372,-0.703l-0.769,0.204l-0.121,0.034l-1.768,0.172l-0.25,-0.938l1.613,-0.734l0.117,-0.031l0.772,-0.206l-0.03,-0.798c-0.029,-0.787 0.075,-1.569 0.31,-2.325l0.238,-0.768l-0.698,-0.398l-0.107,-0.061l-1.366,-1.126l0.485,-0.841l1.663,0.623l0.112,0.064l0.69,0.394l0.539,-0.584c0.537,-0.581 1.161,-1.062 1.856,-1.428l0.705,-0.372l-0.206,-0.771l-0.03,-0.117l-0.171,-1.766l0.939,-0.252l0,0zm2.03,12.464c0.262,0 0.523,-0.034 0.778,-0.103c1.598,-0.428 2.549,-2.077 2.121,-3.675c-0.351,-1.31 -1.542,-2.224 -2.896,-2.224c-0.262,0 -0.523,0.034 -0.778,0.103c-0.774,0.207 -1.422,0.704 -1.822,1.397s-0.507,1.502 -0.299,2.276c0.351,1.311 1.542,2.226 2.896,2.226l0,0zm-1.471,-13.649l-2.575,0.69l0.261,2.691l0.053,0.197c-0.808,0.426 -1.522,0.982 -2.124,1.634l-0.182,-0.104l-2.531,-0.948l-1.332,2.308l2.086,1.719l0.182,0.104c-0.264,0.85 -0.388,1.745 -0.354,2.659l-0.198,0.053l-2.46,1.119l0.688,2.575l2.692,-0.262l0.198,-0.053c0.428,0.809 0.982,1.522 1.635,2.126l-0.105,0.181l-0.947,2.529l2.309,1.334l1.717,-2.087l0.106,-0.18c0.753,0.233 1.546,0.358 2.354,0.358c0.101,0 0.202,-0.002 0.303,-0.006l0.054,0.197l1.119,2.461l2.575,-0.689l-0.261,-2.691l-0.054,-0.197c0.81,-0.427 1.522,-0.982 2.126,-1.635l0.18,0.104l2.531,0.948l1.334,-2.31l-2.088,-1.718l-0.18,-0.104c0.262,-0.849 0.387,-1.744 0.352,-2.658l0.198,-0.053l2.462,-1.119l-0.691,-2.575l-2.69,0.262l-0.198,0.053c-0.427,-0.809 -0.982,-1.522 -1.633,-2.127l0.104,-0.179l0.949,-2.532l-2.311,-1.332l-1.718,2.087l-0.104,0.18c-0.752,-0.233 -1.542,-0.358 -2.35,-0.358c-0.103,0 -0.205,0.002 -0.308,0.006l-0.053,-0.197l-1.121,-2.461l0,0zm1.471,12.649c-0.884,0 -1.69,-0.589 -1.93,-1.483c-0.286,-1.067 0.346,-2.163 1.414,-2.449c0.174,-0.047 0.348,-0.068 0.52,-0.068c0.883,0 1.69,0.589 1.93,1.482c0.286,1.068 -0.347,2.164 -1.414,2.45c-0.174,0.046 -0.349,0.068 -0.52,0.068l0,0z"/>
  <path id="svg_94" fill="#37474F" d="m38.181299,6.674274l0.738,1.978l0.027,0.146l0.152,0.781l0.797,0.026c0.328,0.011 0.658,0.042 0.984,0.094c0.557,0.088 1.11,0.237 1.643,0.443l0.745,0.288l0.445,-0.664l0.083,-0.123l1.451,-1.531l1.084,0.73l-0.876,1.92l-0.084,0.125l-0.449,0.663l0.548,0.583c0.62,0.658 1.117,1.408 1.479,2.229l0.321,0.729l0.781,-0.15l0.147,-0.026l2.111,-0.058l0.249,1.281l-1.976,0.739l-0.144,0.026l-0.789,0.149l-0.023,0.803c-0.027,0.896 -0.208,1.777 -0.537,2.623l-0.287,0.744l0.662,0.446l0.125,0.084l1.531,1.451l-0.73,1.083l-1.922,-0.877l-0.125,-0.084l-0.662,-0.446l-0.582,0.548c-0.657,0.619 -1.408,1.117 -2.23,1.48l-0.727,0.32l0.148,0.781l0.028,0.146l0.057,2.112l-1.28,0.249l-0.738,-1.98l-0.029,-0.145l-0.154,-0.78l-0.795,-0.026c-0.327,-0.01 -0.658,-0.042 -0.982,-0.093c-0.559,-0.089 -1.111,-0.238 -1.645,-0.443l-0.742,-0.288l-0.446,0.66l-0.084,0.125l-1.453,1.532l-1.081,-0.729l0.877,-1.921l0.083,-0.122l0.446,-0.661l-0.545,-0.583c-0.621,-0.664 -1.12,-1.417 -1.482,-2.234l-0.32,-0.728l-0.781,0.149l-0.146,0.027l-2.113,0.057l-0.248,-1.28l1.979,-0.738l0.146,-0.028l0.782,-0.152l0.024,-0.797c0.029,-0.896 0.209,-1.78 0.537,-2.624l0.289,-0.745l-0.664,-0.445l-0.125,-0.085l-1.531,-1.452l0.73,-1.084l1.92,0.877l0.124,0.085l0.661,0.446l0.582,-0.546c0.664,-0.621 1.416,-1.12 2.234,-1.481l0.727,-0.322l-0.148,-0.78l-0.027,-0.146l-0.057,-2.112l1.282,-0.249l0,0zm0.83,14.873c0.461,0.073 0.93,0.065 1.391,-0.025c1.049,-0.203 1.957,-0.803 2.553,-1.688c0.598,-0.886 0.814,-1.951 0.611,-3.001c-0.322,-1.646 -1.647,-2.925 -3.302,-3.188c-0.461,-0.073 -0.928,-0.064 -1.39,0.025c-1.049,0.203 -1.955,0.804 -2.552,1.69c-0.599,0.885 -0.814,1.951 -0.61,2.999c0.32,1.645 1.647,2.926 3.299,3.188l0,0zm-0.189,-16.015l-2.945,0.571l0.082,3.04l0.043,0.228c-0.941,0.415 -1.783,0.983 -2.514,1.666l-0.192,-0.131l-2.767,-1.263l-1.678,2.487l2.207,2.092l0.194,0.131c-0.361,0.931 -0.571,1.926 -0.604,2.954l-0.226,0.044l-2.849,1.063l0.572,2.945l3.039,-0.082l0.227,-0.043c0.415,0.94 0.983,1.784 1.666,2.513l-0.13,0.193l-1.263,2.767l2.486,1.678l2.092,-2.208l0.131,-0.192c0.592,0.229 1.211,0.397 1.848,0.498c0.363,0.058 0.733,0.093 1.107,0.105l0.044,0.225l1.063,2.851l2.943,-0.571l-0.082,-3.042l-0.043,-0.226c0.941,-0.416 1.785,-0.982 2.512,-1.666l0.195,0.131l2.767,1.262l1.677,-2.486l-2.207,-2.093l-0.193,-0.13c0.361,-0.931 0.571,-1.926 0.602,-2.954l0.229,-0.043l2.848,-1.064l-0.57,-2.944l-3.041,0.082l-0.227,0.043c-0.414,-0.939 -0.982,-1.785 -1.666,-2.512l0.133,-0.194l1.261,-2.769l-2.487,-1.677l-2.093,2.208l-0.13,0.192c-0.592,-0.229 -1.21,-0.396 -1.846,-0.497c-0.364,-0.058 -0.734,-0.095 -1.108,-0.105l-0.044,-0.227l-1.063,-2.85l0,0zm0.345,15.028c-1.209,-0.191 -2.227,-1.118 -2.475,-2.391c-0.314,-1.627 0.747,-3.201 2.373,-3.518c0.354,-0.069 0.705,-0.072 1.042,-0.02c1.211,0.192 2.228,1.12 2.476,2.392c0.316,1.628 -0.746,3.201 -2.373,3.518c-0.353,0.068 -0.705,0.073 -1.043,0.019l0,0z"/>
 </g>
</svg>